<svg width="100" height="100" viewBox="0 0 100 100" fill="none" xmlns="http://www.w3.org/2000/svg">
<g clip-path="url(#clip0_137_172)">
<rect width="100" height="100" rx="50" fill="#F2BC7F"/>
<path d="M37.6119 62.764C35.6279 62.764 34.0279 62.252 32.8119 61.228C31.6599 60.14 31.0839 58.348 31.0839 55.852C31.0839 53.356 31.6599 51.596 32.8119 50.572C34.0279 49.484 35.6279 48.94 37.6119 48.94H62.3799C64.4279 48.94 66.0279 49.484 67.1799 50.572C68.3319 51.596 68.9079 53.356 68.9079 55.852C68.9079 58.348 68.3319 60.14 67.1799 61.228C66.0279 62.252 64.4279 62.764 62.3799 62.764H37.6119Z" fill="white"/>
</g>
<defs>
<clipPath id="clip0_137_172">
<rect width="100" height="100" rx="50" fill="white"/>
</clipPath>
</defs>
</svg>
