<svg width="100" height="100" viewBox="0 0 100 100" fill="none" xmlns="http://www.w3.org/2000/svg">
<g clip-path="url(#clip0_132_125)">
<rect width="100" height="100" rx="50" fill="#F2BC7F"/>
<path d="M31.6355 58.444C29.6515 58.444 28.0515 57.964 26.8355 57.004C25.6835 55.98 25.1075 54.476 25.1075 52.492C25.1075 50.444 25.6835 48.94 26.8355 47.98C28.0515 47.02 29.6515 46.54 31.6355 46.54H44.1155V34.156C44.1155 32.108 44.5955 30.508 45.5555 29.356C46.5795 28.204 48.0835 27.628 50.0675 27.628C52.1155 27.628 53.6195 28.204 54.5795 29.356C55.5395 30.508 56.0195 32.108 56.0195 34.156V46.54H68.4035C70.4515 46.54 72.0515 47.02 73.2035 47.98C74.3555 48.94 74.9315 50.444 74.9315 52.492C74.9315 54.476 74.3555 55.98 73.2035 57.004C72.0515 57.964 70.4515 58.444 68.4035 58.444H56.0195V70.924C56.0195 72.908 55.5395 74.508 54.5795 75.724C53.6195 76.876 52.1155 77.452 50.0675 77.452C48.0835 77.452 46.5795 76.876 45.5555 75.724C44.5955 74.508 44.1155 72.908 44.1155 70.924V58.444H31.6355Z" fill="white"/>
</g>
<defs>
<clipPath id="clip0_132_125">
<rect width="100" height="100" rx="50" fill="white"/>
</clipPath>
</defs>
</svg>
