<svg width="300" height="100" viewBox="0 0 300 100" fill="none" xmlns="http://www.w3.org/2000/svg">
<rect width="300" height="100" rx="50" fill="#ABBE74"/>
<mask id="mask0_127_61" style="mask-type:alpha" maskUnits="userSpaceOnUse" x="0" y="0" width="300" height="100">
<rect width="300" height="100" rx="50" fill="#ABBE74"/>
</mask>
<g mask="url(#mask0_127_61)">
<path d="M-62 -70V160.207C-62 160.207 -38.3716 98.5851 -6.06607 120.528C19.5473 137.925 7.24415 190.68 42.2027 190.944C52.3899 191.021 54.5839 149.461 69.4312 180.455C85.0239 213.005 94.2677 117.302 116.103 116.96C141.666 116.559 148.083 161.646 148.082 164.721C148.082 171.888 152.02 176.543 156.906 176.543C161.792 176.543 162.174 166.906 165.729 164.506C169.284 162.106 170.514 170.919 180.461 169.493C189.533 168.192 203.192 97.8587 214.038 127.492C227.487 164.236 230.069 134.026 238.711 130.802C247.354 127.578 255.766 194.564 279.554 193.996C299.684 193.516 302.939 104.483 327.743 103.375C352.547 102.267 361 160.207 361 160.207V-70H-62Z" fill="#F2BC7F"/>
</g>
</svg>
